# xmcd CD database file
#
# Track frame offsets:
#	150
#	32356
#	39726
#	66290
#	88050
#	105163
#	124908
#	141603
#	171693
#	183353
#	204349
#	220595
#	245748
#	271926
#
# Disc length: 4238 seconds
#
# Revision: 0
# Processed by: cddbd v1.5.2PL0 Copyright (c) Steve Scherf et al.
# Submitted via: CDex 1.70beta2
#
DISCID=d0108c0e
DTITLE=Sashird Lao - Watsdis
DYEAR=2005
DGENRE=Jazz
TTITLE0=Shake it baby !
TTITLE1=Charles émoi
TTITLE2=Moanin
TTITLE3=Méditation de la trompe
TTITLE4=Trouble
TTITLE5=Night and day
TTITLE6=Keep me warm
TTITLE7=Caravan - Baladi
TTITLE8=Portrait of Tracy
TTITLE9=Tout en dodelinant
TTITLE10=Aubade (Laura)
TTITLE11=Kalam
TTITLE12=Runnin
TTITLE13=Crépuscule
EXTD=YEAR: 2005
EXTT0=
EXTT1=
EXTT2=
EXTT3=
EXTT4=
EXTT5=
EXTT6=
EXTT7=
EXTT8=
EXTT9=
EXTT10=
EXTT11=
EXTT12=
EXTT13=
PLAYORDER=
